<svg width="13" height="13" viewBox="0 0 13 13" fill="none" xmlns="http://www.w3.org/2000/svg">
<g id="Combined Shape 3">
<path id="Combined Shape" fill-rule="evenodd" clip-rule="evenodd" d="M2.56066 0.43934C1.97487 -0.146447 1.02513 -0.146447 0.43934 0.43934C-0.146447 1.02513 -0.146447 1.97487 0.43934 2.56066L3.97487 6.09619L0.43934 9.63173C-0.146447 10.2175 -0.146447 11.1673 0.43934 11.753C1.02513 12.3388 1.97487 12.3388 2.56066 11.753L6.09619 8.21751L9.63173 11.753C10.2175 12.3388 11.1673 12.3388 11.753 11.753C12.3388 11.1673 12.3388 10.2175 11.753 9.63173L8.21751 6.09619L11.753 2.56066C12.3388 1.97487 12.3388 1.02513 11.753 0.43934C11.1673 -0.146446 10.2175 -0.146446 9.63173 0.43934L6.09619 3.97487L2.56066 0.43934Z" fill="white"/>
</g>
</svg>
